<svg width="24" height="25" viewBox="0 0 24 25" fill="none" xmlns="http://www.w3.org/2000/svg">
<path d="M11.9929 23C11.9929 23 13.6227 23.1276 13.8438 22.6979C14.1078 22.1849 14.2113 21.5984 14.1438 21.0209C14.0885 20.6089 13.9524 20.2118 13.7433 19.8524C13.5369 19.4978 13.2609 19.1886 12.9318 18.9434C11.8103 18.1006 11.0234 16.888 10.7103 15.5204C8.14833 18.8789 9.13083 20.7854 10.3578 22.4654C10.7435 22.9933 11.9929 23 11.9929 23C11.9929 23 11.9974 24.0671 12.0002 24.77C11.2151 24.77 9.2661 24.3344 9.02883 24.2759C7.37133 23.8709 5.81133 23.0999 4.75383 21.8714C4.15438 21.1891 3.69287 20.3969 3.39483 19.5389C3.09339 18.6736 2.95951 17.7588 3.00033 16.8434C3.00033 16.8434 2.80083 13.1489 7.25583 9.52944C7.25583 9.52944 12.5208 5.06244 10.6938 1.75944C10.6265 1.59697 10.6066 1.41875 10.6363 1.24542C10.666 1.07208 10.7442 0.910699 10.8618 0.779943C10.9761 0.651742 11.1271 0.561817 11.2943 0.52237C11.4615 0.482924 11.6368 0.495867 11.7963 0.559443L12.0153 0.646443C13.9984 1.9 15.5484 3.73273 16.4553 5.89644C17.3253 8.01594 17.3193 10.4864 16.7313 12.6869C17.2188 12.2489 17.6253 11.7254 17.9328 11.1374L17.9763 11.0414C18.2733 10.3259 19.2078 10.5539 19.5588 11.0219C19.6878 11.2274 22.9968 16.0364 21.2193 20.0939C20.5694 21.3233 19.6202 22.369 18.4593 23.1344C17.4853 23.7808 16.3968 24.2355 15.2523 24.4739C15.0158 24.5238 14.2834 24.77 12.0002 24.77C11.9974 24.0671 11.9929 23 11.9929 23ZM11.3238 12.3389C11.4639 12.266 11.6262 12.2479 11.7788 12.2885C11.9314 12.329 12.0634 12.4251 12.1488 12.5579C12.2088 12.6464 12.2478 12.7469 12.2613 12.8549L12.3288 13.3784C12.3588 14.1449 12.3498 14.9459 12.6483 15.6824C12.9573 16.4384 13.4373 17.1074 14.0463 17.6294C14.8309 18.1457 15.4382 18.8902 15.7863 19.7624C16.1163 20.6084 16.1613 21.5474 15.9123 22.4219C16.6741 22.1816 17.3822 21.796 17.9973 21.2864L18.1518 21.1604C18.6558 20.7449 19.0713 20.2259 19.3713 19.6349C19.6728 19.0454 19.8543 18.3974 19.9023 17.7314C19.9998 16.1939 19.4763 14.6504 18.6618 13.2734C18.2898 13.8134 17.7768 14.2319 17.1843 14.4794C16.8138 14.6369 16.4208 14.7344 16.0203 14.7644C15.7909 14.7792 15.5622 14.7271 15.3618 14.6144C15.1584 14.4988 14.9915 14.3283 14.8803 14.1224C14.7883 13.9564 14.7357 13.7714 14.7266 13.5818C14.7175 13.3922 14.7521 13.203 14.8278 13.0289C15.4458 11.5709 15.6378 9.95394 15.3753 8.38344C15.0646 6.58664 14.204 4.93051 12.9123 3.64344C12.6783 6.95094 9.28683 10.0304 8.59083 10.6934C8.48294 10.7951 8.37085 10.8922 8.25483 10.9844C4.61583 13.9319 4.86483 16.6169 4.86483 16.7354C4.79256 17.8021 5.03176 18.8667 5.55333 19.7999C6.10083 20.7674 6.88833 21.5654 7.83333 22.1099C6.74283 19.7129 6.74283 16.8359 10.7673 12.7109L11.3253 12.3359L11.3238 12.3389Z" fill="url(#paint0_linear_4094_9746)"/>
<path d="M11.3238 12.3389C11.4639 12.266 11.6262 12.2479 11.7788 12.2885C11.9314 12.329 12.0634 12.4251 12.1488 12.5579C12.2088 12.6464 12.2478 12.7469 12.2613 12.8549L12.3288 13.3784C12.3588 14.1449 12.3498 14.9459 12.6483 15.6824C12.9573 16.4384 13.4373 17.1074 14.0463 17.6294C14.8309 18.1457 15.4382 18.8902 15.7863 19.7624C16.1163 20.6084 16.1613 21.5474 15.9123 22.4219C16.6741 22.1816 17.3822 21.796 17.9973 21.2864L18.1518 21.1604C18.6558 20.7449 19.0713 20.2259 19.3713 19.6349C19.6728 19.0454 19.8543 18.3974 19.9023 17.7314C19.9998 16.1939 19.4763 14.6504 18.6618 13.2734C18.2898 13.8134 17.7768 14.2319 17.1843 14.4794C16.8138 14.6369 16.4208 14.7344 16.0203 14.7644C15.7909 14.7792 15.5622 14.7271 15.3618 14.6144C15.1584 14.4988 14.9915 14.3283 14.8803 14.1224C14.7883 13.9564 14.7357 13.7714 14.7266 13.5818C14.7175 13.3922 14.7521 13.203 14.8278 13.0289C15.4458 11.5709 15.6378 9.95394 15.3753 8.38344C15.0646 6.58664 14.204 4.93051 12.9123 3.64344C12.6783 6.95094 9.28683 10.0304 8.59083 10.6934C8.48294 10.7951 8.37085 10.8922 8.25483 10.9844C4.61583 13.9319 4.86483 16.6169 4.86483 16.7354C4.79256 17.8021 5.03176 18.8667 5.55333 19.7999C6.10083 20.7674 6.88833 21.5654 7.83333 22.1099C6.74283 19.7129 6.74283 16.8359 10.7673 12.7109L11.3253 12.3359L11.3238 12.3389Z" fill="url(#paint1_linear_4094_9746)"/>
<defs>
<linearGradient id="paint0_linear_4094_9746" x1="12.3753" y1="0.5" x2="12.3753" y2="24.5008" gradientUnits="userSpaceOnUse">
<stop stop-color="#FC5A40"/>
<stop offset="1" stop-color="#FC9A40"/>
</linearGradient>
<linearGradient id="paint1_linear_4094_9746" x1="12.3753" y1="0.5" x2="12.3753" y2="24.5008" gradientUnits="userSpaceOnUse">
<stop stop-color="#FC5A40"/>
<stop offset="1" stop-color="#FC9A40"/>
</linearGradient>
</defs>
</svg>
